<mxfile host="65bd71144e">
    <diagram id="6_hcJVikhut66SppSBKF" name="Страница 1">
        <mxGraphModel dx="1124" dy="530" grid="1" gridSize="10" guides="1" tooltips="1" connect="1" arrows="1" fold="1" page="1" pageScale="1" pageWidth="1654" pageHeight="1169" math="0" shadow="0">
            <root>
                <mxCell id="0"/>
                <mxCell id="1" parent="0"/>
                <mxCell id="XYF1qvzwn_4hJg2Sv7mF-10" style="rounded=0;orthogonalLoop=1;jettySize=auto;html=1;entryX=0;entryY=0;entryDx=0;entryDy=0;exitX=0.5;exitY=1;exitDx=0;exitDy=0;" parent="1" source="XYF1qvzwn_4hJg2Sv7mF-1" target="XYF1qvzwn_4hJg2Sv7mF-6" edge="1">
                    <mxGeometry relative="1" as="geometry"/>
                </mxCell>
                <mxCell id="NMR-vxxSr8MBoyW9hku6-2" style="edgeStyle=orthogonalEdgeStyle;rounded=0;orthogonalLoop=1;jettySize=auto;html=1;" parent="1" source="XYF1qvzwn_4hJg2Sv7mF-1" target="NMR-vxxSr8MBoyW9hku6-1" edge="1">
                    <mxGeometry relative="1" as="geometry"/>
                </mxCell>
                <mxCell id="XYF1qvzwn_4hJg2Sv7mF-1" value="NftStakingPosition" style="rounded=0;whiteSpace=wrap;html=1;" parent="1" vertex="1">
                    <mxGeometry x="210" y="240" width="120" height="60" as="geometry"/>
                </mxCell>
                <mxCell id="XYF1qvzwn_4hJg2Sv7mF-7" style="edgeStyle=orthogonalEdgeStyle;rounded=0;orthogonalLoop=1;jettySize=auto;html=1;entryX=0.5;entryY=0;entryDx=0;entryDy=0;" parent="1" source="XYF1qvzwn_4hJg2Sv7mF-2" target="XYF1qvzwn_4hJg2Sv7mF-1" edge="1">
                    <mxGeometry relative="1" as="geometry"/>
                </mxCell>
                <mxCell id="XYF1qvzwn_4hJg2Sv7mF-2" value="NFT Staker" style="shape=umlActor;verticalLabelPosition=bottom;verticalAlign=top;html=1;outlineConnect=0;" parent="1" vertex="1">
                    <mxGeometry x="255" y="80" width="30" height="60" as="geometry"/>
                </mxCell>
                <mxCell id="XYF1qvzwn_4hJg2Sv7mF-8" style="edgeStyle=orthogonalEdgeStyle;rounded=0;orthogonalLoop=1;jettySize=auto;html=1;entryX=0.5;entryY=0;entryDx=0;entryDy=0;" parent="1" source="XYF1qvzwn_4hJg2Sv7mF-3" target="XYF1qvzwn_4hJg2Sv7mF-5" edge="1">
                    <mxGeometry relative="1" as="geometry"/>
                </mxCell>
                <mxCell id="XYF1qvzwn_4hJg2Sv7mF-3" value="Voter" style="shape=umlActor;verticalLabelPosition=bottom;verticalAlign=top;html=1;outlineConnect=0;" parent="1" vertex="1">
                    <mxGeometry x="680" y="70" width="30" height="60" as="geometry"/>
                </mxCell>
                <mxCell id="XYF1qvzwn_4hJg2Sv7mF-9" style="rounded=0;orthogonalLoop=1;jettySize=auto;html=1;entryX=1;entryY=0;entryDx=0;entryDy=0;exitX=0.5;exitY=1;exitDx=0;exitDy=0;" parent="1" source="XYF1qvzwn_4hJg2Sv7mF-5" target="XYF1qvzwn_4hJg2Sv7mF-6" edge="1">
                    <mxGeometry relative="1" as="geometry"/>
                </mxCell>
                <mxCell id="XYF1qvzwn_4hJg2Sv7mF-5" value="NftVotingPosition" style="rounded=0;whiteSpace=wrap;html=1;" parent="1" vertex="1">
                    <mxGeometry x="635" y="240" width="120" height="60" as="geometry"/>
                </mxCell>
                <mxCell id="XYF1qvzwn_4hJg2Sv7mF-17" style="edgeStyle=none;rounded=0;orthogonalLoop=1;jettySize=auto;html=1;entryX=0.5;entryY=0;entryDx=0;entryDy=0;exitX=0.5;exitY=1;exitDx=0;exitDy=0;" parent="1" source="XYF1qvzwn_4hJg2Sv7mF-6" target="XYF1qvzwn_4hJg2Sv7mF-16" edge="1">
                    <mxGeometry relative="1" as="geometry"/>
                </mxCell>
                <mxCell id="XYF1qvzwn_4hJg2Sv7mF-6" value="NftBattleArena" style="rounded=0;whiteSpace=wrap;html=1;" parent="1" vertex="1">
                    <mxGeometry x="420" y="400" width="120" height="60" as="geometry"/>
                </mxCell>
                <mxCell id="XYF1qvzwn_4hJg2Sv7mF-12" style="edgeStyle=none;rounded=0;orthogonalLoop=1;jettySize=auto;html=1;entryX=1;entryY=0.5;entryDx=0;entryDy=0;exitX=0;exitY=0.5;exitDx=0;exitDy=0;dashed=1;" parent="1" source="XYF1qvzwn_4hJg2Sv7mF-11" target="XYF1qvzwn_4hJg2Sv7mF-1" edge="1">
                    <mxGeometry relative="1" as="geometry"/>
                </mxCell>
                <mxCell id="XYF1qvzwn_4hJg2Sv7mF-13" style="edgeStyle=none;rounded=0;orthogonalLoop=1;jettySize=auto;html=1;entryX=0;entryY=0.5;entryDx=0;entryDy=0;dashed=1;" parent="1" source="XYF1qvzwn_4hJg2Sv7mF-11" target="XYF1qvzwn_4hJg2Sv7mF-5" edge="1">
                    <mxGeometry relative="1" as="geometry"/>
                </mxCell>
                <mxCell id="XYF1qvzwn_4hJg2Sv7mF-11" value="ERC-721" style="text;html=1;strokeColor=none;fillColor=none;align=center;verticalAlign=middle;whiteSpace=wrap;rounded=0;" parent="1" vertex="1">
                    <mxGeometry x="450" y="255" width="60" height="30" as="geometry"/>
                </mxCell>
                <mxCell id="XYF1qvzwn_4hJg2Sv7mF-16" value="ZooFunctions" style="rounded=1;whiteSpace=wrap;html=1;" parent="1" vertex="1">
                    <mxGeometry x="420" y="525" width="120" height="60" as="geometry"/>
                </mxCell>
                <mxCell id="XYF1qvzwn_4hJg2Sv7mF-21" value="- createPosition&lt;br&gt;- addDai&lt;br&gt;-withdrawDai&lt;br&gt;- addZoo&lt;br&gt;-withdrawZoo&lt;br&gt;- claim" style="text;html=1;strokeColor=none;fillColor=none;align=center;verticalAlign=middle;whiteSpace=wrap;rounded=0;" parent="1" vertex="1">
                    <mxGeometry x="790" y="255" width="130" height="30" as="geometry"/>
                </mxCell>
                <mxCell id="NMR-vxxSr8MBoyW9hku6-1" value="NftListingList" style="rounded=0;whiteSpace=wrap;html=1;" parent="1" vertex="1">
                    <mxGeometry x="210" y="400" width="120" height="60" as="geometry"/>
                </mxCell>
            </root>
        </mxGraphModel>
    </diagram>
</mxfile>